<svg width="3614" height="693" viewBox="0 0 3614 693" fill="none" xmlns="http://www.w3.org/2000/svg">
<g clip-path="url(#clip0_66_2)">
          <span className="text-xs text-muted-foreground bg-background/80 px-2 py-1">Cover Photo</span>
<rect width="3614" height="693" fill="#2B3248"/>
<circle cx="1798.15" cy="508.655" r="4.26364" fill="#EFE2D9"/>
<circle cx="1961.23" cy="359.427" r="4.26364" fill="#EFE2D9"/>
<circle cx="1394.17" cy="33.2591" r="4.26364" fill="#EFE2D9"/>
<circle cx="1202.31" cy="57.775" r="4.26364" fill="#EFE2D9"/>
<circle cx="1227.89" cy="145.18" r="4.26364" fill="#EFE2D9"/>
<circle cx="1976.16" cy="500.127" r="4.26364" fill="#EFE2D9"/>
<circle cx="1991.08" cy="300.802" r="4.26364" fill="#EFE2D9"/>
<circle cx="1965.5" cy="437.239" r="4.26364" fill="#EFE2D9"/>
<circle cx="1886.62" cy="500.127" r="4.26364" fill="#EFE2D9"/>
<circle cx="1914.33" cy="120.664" r="4.26364" fill="#EFE2D9"/>
<circle cx="2037.98" cy="95.0818" r="4.26364" fill="#EFE2D9"/>
<circle cx="2113.66" cy="177.157" r="4.26364" fill="#EFE2D9"/>
<circle cx="2076.35" cy="269.891" r="4.26364" fill="#EFE2D9"/>
<circle cx="2080.87" cy="432.837" r="4.26364" fill="#EFE2D9"/>
<circle cx="2154.37" cy="503.755" r="4.26364" fill="#EFE2D9"/>
<circle cx="2154.37" cy="503.755" r="4.26364" fill="#EFE2D9"/>
<circle cx="2124.71" cy="352.894" r="4.26364" fill="#EFE2D9"/>
<circle cx="1706.48" cy="339.175" r="4.26364" fill="#EFE2D9"/>
<circle cx="1815.2" cy="86.5545" r="4.26364" fill="#EFE2D9"/>
<circle cx="1758.71" cy="296.539" r="4.26364" fill="#EFE2D9"/>
<circle cx="1829.06" cy="192.08" r="4.26364" fill="#EFE2D9"/>
<circle cx="1734.2" cy="269.891" r="4.26364" fill="#EFE2D9"/>
<circle cx="1789.26" cy="366.264" r="4.26364" fill="#EFE2D9"/>
<circle cx="1829.06" cy="269.891" r="4.26364" fill="#EFE2D9"/>
<circle cx="1706.48" cy="116.4" r="4.26364" fill="#EFE2D9"/>
<circle cx="1706.48" cy="116.4" r="4.26364" fill="#EFE2D9"/>
<circle cx="1537" cy="37.5227" r="4.26364" fill="#EFE2D9"/>
<circle cx="2041.85" cy="42.8511" r="21.8511" fill="#EFE2D9"/>
<circle cx="2735.32" cy="73.3182" r="21.3182" fill="#EFE2D9"/>
<path d="M2348.23 4.26399C2351.2 1.0583 2354.3 4.18666 2356.1 8.08705C2357.64 11.422 2360.17 13.1642 2362.26 12.5002" stroke="#EFE2D9" stroke-width="10.7657" stroke-linecap="round"/>
<circle cx="2320.64" cy="28.5477" r="12.7909" fill="#EFE2D9"/>
<circle cx="2334.49" cy="11.4932" r="51.1636" stroke="#5CAAAA" stroke-width="10.6591"/>
<circle cx="2913.23" cy="356.789" r="8.52727" fill="#EFE2D9"/>
<circle cx="2953.2" cy="322.147" r="26.1148" fill="#EFE2D9"/>
<circle cx="2940.94" cy="326.943" r="74.6136" stroke="#9290BF" stroke-width="10.6591"/>
<path d="M1840 -10.5C1940.35 -29.925 2294.12 149.688 2246.59 278" stroke="#EFE2D9" stroke-width="4.37023" stroke-linecap="round"/>
<path d="M2327 89C2352.05 273.402 2262.51 192.471 2230.54 320.38C2198.56 448.289 2033.2 481.804 1981.5 471.5" stroke="#EFE2D9" stroke-width="4.37023" stroke-linecap="round"/>
<path d="M2437.26 26.0003C2549 26.0003 2649.02 35.046 2708 62C2818.5 112.5 2889.5 153 2916 231.5" stroke="#EFE2D9" stroke-width="4.37023" stroke-linecap="round"/>
<circle cx="1092.91" cy="622.911" r="30.9114" fill="#EFE2D9"/>
<circle cx="1551.91" cy="264.911" r="30.9114" fill="#EFE2D9"/>
<circle cx="1722.94" cy="-18.0568" r="79.9432" fill="#9290BF"/>
<path d="M1688.9 14.135C1687.53 10.6118 1689.33 6.61949 1693.1 4.32728" stroke="#EFE2D9" stroke-width="10.7657" stroke-linecap="round"/>
<circle cx="1747.46" cy="-3.1341" r="33.0432" fill="#EFE2D9"/>
<circle cx="1499.7" cy="306.132" r="4.26364" fill="#EFE2D9"/>
<circle cx="1552.99" cy="242.177" r="4.26364" fill="#EFE2D9"/>
<circle cx="1552.99" cy="353.032" r="4.26364" fill="#EFE2D9"/>
<circle cx="1580.7" cy="321.054" r="4.26364" fill="#EFE2D9"/>
<circle cx="1441.07" cy="305.066" r="4.26364" fill="#EFE2D9"/>
<circle cx="1557.25" cy="484.139" r="4.26364" fill="#EFE2D9"/>
<circle cx="1314.23" cy="267.759" r="4.26364" fill="#EFE2D9"/>
<circle cx="1384.58" cy="267.759" r="4.26364" fill="#EFE2D9"/>
<circle cx="1598.83" cy="95.0818" r="4.26364" fill="#EFE2D9"/>
<circle cx="1663.85" cy="448.964" r="4.26364" fill="#EFE2D9"/>
<circle cx="1293.26" cy="345.264" r="4.26364" fill="#EFE2D9"/>
<circle cx="1384.26" cy="401.264" r="4.26364" fill="#EFE2D9"/>
<circle cx="474.264" cy="637.264" r="4.26364" fill="#EFE2D9"/>
<circle cx="401.264" cy="530.264" r="4.26364" fill="#EFE2D9"/>
<circle cx="2089.26" cy="684.264" r="4.26364" fill="#EFE2D9"/>
<circle cx="2149.26" cy="612.264" r="4.26364" fill="#EFE2D9"/>
<circle cx="1664.26" cy="531.264" r="4.26364" fill="#EFE2D9"/>
<circle cx="1755.26" cy="566.264" r="4.26364" fill="#EFE2D9"/>
<circle cx="1141.26" cy="211.264" r="4.26364" fill="#EFE2D9"/>
<circle cx="1471.98" cy="357.295" r="4.26364" fill="#EFE2D9"/>
<circle cx="1615.88" cy="234.716" r="4.26364" fill="#EFE2D9"/>
<path d="M1176 493C1126 600.5 1053 677 941.5 745C830 813 720 777.5 648.5 745" stroke="#EFE2D9" stroke-width="4.37023" stroke-linecap="round"/>
<path d="M1303 266.97C1420.5 143 1693.5 332 1734.5 426" stroke="#EFE2D9" stroke-width="4.37023" stroke-linecap="round"/>
<path d="M1301 269C1423 145.5 1591 193.5 1662.5 69" stroke="#EFE2D9" stroke-width="4.37023" stroke-linecap="round"/>
<path d="M2616 764C2507.26 800.751 2371.25 823.107 2260.91 805.525C2177.79 792.282 2048.73 713.169 1971.32 635.256" stroke="#EFE2D9" stroke-width="4.37023" stroke-linecap="round"/>
<path d="M884.501 -25.9997C808.5 -12 732.5 48.5 673.5 141.5C621.844 222.924 576.5 450.5 589.501 585" stroke="#EFE2D9" stroke-width="4.37023" stroke-linecap="round"/>
<path d="M605.456 719.859C587.125 733.224 573.248 730.393 560.982 721.354C550.494 713.625 533.281 680.839 540.043 667.217" stroke="#EFE2D9" stroke-width="10.7657" stroke-linecap="round"/>
<circle cx="1829" cy="535" r="118" fill="#5CAAAA"/>
<path d="M1876.72 592.264C1852.54 628.234 1827.25 630.551 1799.33 622.337C1775.45 615.314 1731.81 578.682 1735.05 549.808" stroke="#EFE2D9" stroke-width="10.7657" stroke-linecap="round"/>
<path d="M1859.89 580.407C1843.68 604.536 1825.73 607.208 1806.99 601.699C1790.98 596.988 1755.88 565.048 1758.05 545.68" stroke="#EFE2D9" stroke-width="10.7657" stroke-linecap="round"/>
<path d="M1896.55 532.707C1903.03 516.786 1895.48 507.927 1886.49 505.282C1878.8 503.021 1874.43 494.832 1875.47 485.534" stroke="#EFE2D9" stroke-width="10.7657" stroke-linecap="round"/>
<circle cx="1829.5" cy="525.5" r="36.5" fill="#EFE2D9"/>
<circle cx="668" cy="149" r="44" fill="#9290BF"/>
<circle cx="580" cy="681" r="68.6705" stroke="#5CAAAA" stroke-width="10.6591"/>
<circle cx="954" cy="-32" r="52" fill="#5CAAAA"/>
<circle cx="592.02" cy="675.019" r="30.9398" transform="rotate(102.785 592.02 675.019)" fill="#EFE2D9"/>
<circle cx="1228.19" cy="372.806" r="51.5435" transform="rotate(102.785 1228.19 372.806)" fill="#EFE2D9"/>
<circle cx="1238" cy="362" r="91.62" transform="rotate(102.785 1238 362)" stroke="#9290BF" stroke-width="10.6591"/>
<circle cx="1104.51" cy="548.798" r="5.36801" transform="rotate(30 1104.51 548.798)" fill="#EFE2D9"/>
<circle cx="990.728" cy="681.457" r="5.36801" transform="rotate(30 990.728 681.457)" fill="#EFE2D9"/>
<circle cx="996.949" cy="607.012" r="4.24401" transform="rotate(92.5925 996.949 607.012)" fill="#EFE2D9"/>
<circle cx="862.432" cy="575.432" r="4.24401" transform="rotate(92.5925 862.432 575.432)" fill="#EFE2D9"/>
<circle cx="1134.23" cy="304.073" r="5.36801" transform="rotate(30 1134.23 304.073)" fill="#EFE2D9"/>
<circle cx="901.525" cy="58.7159" r="4.80832" transform="rotate(-58.6889 901.525 58.7159)" fill="#EFE2D9"/>
<circle cx="1528.01" cy="199.197" r="4.80832" transform="rotate(-58.6889 1528.01 199.197)" fill="#EFE2D9"/>
<circle cx="833.207" cy="309.816" r="4.80832" transform="rotate(-58.6889 833.207 309.816)" fill="#EFE2D9"/>
<circle cx="763.436" cy="188.583" r="4.80832" transform="rotate(-58.6889 763.436 188.583)" fill="#EFE2D9"/>
<circle cx="744.382" cy="509.045" r="4.80832" transform="rotate(-58.6889 744.382 509.045)" fill="#EFE2D9"/>
<circle cx="843.589" cy="535.623" r="4.80832" transform="rotate(-58.6889 843.589 535.623)" fill="#EFE2D9"/>
<circle cx="635.607" cy="292.331" r="4.80832" transform="rotate(-58.6889 635.607 292.331)" fill="#EFE2D9"/>
<circle cx="919.793" cy="176.589" r="5.77747" transform="rotate(179.848 919.793 176.589)" fill="#EFE2D9"/>
<circle cx="1689.36" cy="616.528" r="5.77747" transform="rotate(179.848 1689.36 616.528)" fill="#EFE2D9"/>
<circle cx="2027.79" cy="605.793" r="5.77747" transform="rotate(179.848 2027.79 605.793)" fill="#EFE2D9"/>
<circle cx="1842.79" cy="454.793" r="5.77747" transform="rotate(179.848 1842.79 454.793)" fill="#EFE2D9"/>
<circle cx="1019.74" cy="276.941" r="4.26364" transform="rotate(83.2062 1019.74 276.941)" fill="#EFE2D9"/>
<circle cx="505.738" cy="521.735" r="4.26364" transform="rotate(83.2062 505.738 521.735)" fill="#EFE2D9"/>
<circle cx="673.21" cy="666.021" r="4.26364" transform="rotate(83.2062 673.21 666.021)" fill="#EFE2D9"/>
<circle cx="930.006" cy="64.3542" r="4.26364" transform="rotate(83.2062 930.006 64.3542)" fill="#EFE2D9"/>
<circle cx="1045.03" cy="110.764" r="4.26364" transform="rotate(83.2062 1045.03 110.764)" fill="#EFE2D9"/>
<circle cx="2782.46" cy="37.2591" r="4.26364" fill="#EFE2D9"/>
<circle cx="2590.6" cy="61.775" r="4.26364" fill="#EFE2D9"/>
<circle cx="2616.18" cy="149.18" r="4.26364" fill="#EFE2D9"/>
<circle cx="2498.71" cy="519.172" r="4.26364" transform="rotate(68.4495 2498.71 519.172)" fill="#EFE2D9"/>
<circle cx="2621.75" cy="534.754" r="4.26364" transform="rotate(68.4495 2621.75 534.754)" fill="#EFE2D9"/>
<circle cx="2405.43" cy="349.726" r="4.26364" transform="rotate(68.4495 2405.43 349.726)" fill="#EFE2D9"/>
<circle cx="2333.53" cy="405.625" r="4.26364" transform="rotate(68.4495 2333.53 405.625)" fill="#EFE2D9"/>
<circle cx="2616.85" cy="388.854" r="4.26364" transform="rotate(68.4495 2616.85 388.854)" fill="#EFE2D9"/>
<circle cx="2772.53" cy="449.532" r="4.26364" transform="rotate(68.4495 2772.53 449.532)" fill="#EFE2D9"/>
<circle cx="2778.53" cy="548.532" r="4.26364" transform="rotate(68.4495 2778.53 548.532)" fill="#EFE2D9"/>
<circle cx="2313.53" cy="556.532" r="4.26364" transform="rotate(68.4495 2313.53 556.532)" fill="#EFE2D9"/>
<circle cx="3182.53" cy="163.532" r="4.26364" transform="rotate(68.4495 3182.53 163.532)" fill="#EFE2D9"/>
<circle cx="1410.53" cy="546.532" r="4.26364" transform="rotate(68.4495 1410.53 546.532)" fill="#EFE2D9"/>
<circle cx="1289.53" cy="532.532" r="4.26364" transform="rotate(68.4495 1289.53 532.532)" fill="#EFE2D9"/>
<circle cx="1529.53" cy="627.532" r="4.26364" transform="rotate(68.4495 1529.53 627.532)" fill="#EFE2D9"/>
<circle cx="2601.15" cy="242.278" r="4.26364" transform="rotate(68.4495 2601.15 242.278)" fill="#EFE2D9"/>
<circle cx="2603.32" cy="569.937" r="4.80832" transform="rotate(9.7606 2603.32 569.937)" fill="#EFE2D9"/>
<circle cx="2460.74" cy="261.153" r="5.77747" transform="rotate(-111.702 2460.74 261.153)" fill="#EFE2D9"/>
<circle cx="2442.67" cy="200.777" r="4.26364" transform="rotate(151.656 2442.67 200.777)" fill="#EFE2D9"/>
<circle cx="3017.44" cy="590.504" r="4.26364" transform="rotate(145.527 3017.44 590.504)" fill="#EFE2D9"/>
<circle cx="2946.88" cy="532.928" r="4.26364" transform="rotate(145.527 2946.88 532.928)" fill="#EFE2D9"/>
<circle cx="3116.14" cy="624.609" r="5.77747" transform="rotate(-34.6249 3116.14 624.609)" fill="#EFE2D9"/>
<circle cx="3170.95" cy="593.488" r="4.26364" transform="rotate(-131.267 3170.95 593.488)" fill="#EFE2D9"/>
<circle cx="2951.37" cy="440.496" r="5.00443" transform="rotate(68.4495 2951.37 440.496)" fill="#EFE2D9"/>
<circle cx="3095.79" cy="458.786" r="5.00443" transform="rotate(68.4495 3095.79 458.786)" fill="#EFE2D9"/>
<circle cx="2841.88" cy="241.609" r="5.00443" transform="rotate(68.4495 2841.88 241.609)" fill="#EFE2D9"/>
<circle cx="2757.49" cy="307.221" r="5.00443" transform="rotate(68.4495 2757.49 307.221)" fill="#EFE2D9"/>
<circle cx="3090.04" cy="287.536" r="5.00443" transform="rotate(68.4495 3090.04 287.536)" fill="#EFE2D9"/>
<circle cx="3071.61" cy="115.492" r="5.00443" transform="rotate(68.4495 3071.61 115.492)" fill="#EFE2D9"/>
<circle cx="3074.16" cy="500.081" r="5.64375" transform="rotate(9.7606 3074.16 500.081)" fill="#EFE2D9"/>
<circle cx="2906.81" cy="137.647" r="6.78128" transform="rotate(-111.702 2906.81 137.647)" fill="#EFE2D9"/>
<circle cx="2885.59" cy="66.7804" r="5.00443" transform="rotate(151.656 2885.59 66.7804)" fill="#EFE2D9"/>
<circle cx="2714" cy="717" r="68" fill="#9290BF"/>
<circle cx="2680" cy="697" r="16" fill="#EFE2D9"/>
<path d="M2721.18 668.069C2724.15 664.864 2727.25 667.992 2729.05 671.893C2730.59 675.227 2733.12 676.97 2735.21 676.306" stroke="#EFE2D9" stroke-width="10.7657" stroke-linecap="round"/>
<circle cx="956.791" cy="-10.2091" r="12.7909" fill="#EFE2D9"/>
<circle cx="653.5" cy="148.5" r="17.5" fill="#EFE2D9"/>
<circle cx="1123.81" cy="388.649" r="6.5" transform="rotate(115.193 1123.81 388.649)" fill="#EFE2D9"/>
<circle cx="1184.28" cy="466.827" r="6.5" transform="rotate(115.193 1184.28 466.827)" fill="#EFE2D9"/>
<ellipse cx="947.196" cy="504.491" rx="6.5" ry="6" transform="rotate(115.193 947.196 504.491)" fill="#EFE2D9"/>
<circle cx="498.856" cy="37.7537" r="6.5" transform="rotate(20.9382 498.856 37.7537)" fill="#EFE2D9"/>
<ellipse cx="418.019" cy="268.61" rx="6.5" ry="6" transform="rotate(20.9382 418.019 268.61)" fill="#EFE2D9"/>
<circle cx="482.697" cy="407.387" r="6.5" transform="rotate(20.9382 482.697 407.387)" fill="#EFE2D9"/>
<circle cx="522.078" cy="179.941" r="6" transform="rotate(20.9382 522.078 179.941)" fill="#EFE2D9"/>
<circle cx="230.748" cy="130.748" r="6" transform="rotate(20.9382 230.748 130.748)" fill="#EFE2D9"/>
<circle cx="128.748" cy="391.748" r="6" transform="rotate(20.9382 128.748 391.748)" fill="#EFE2D9"/>
<circle cx="230.748" cy="519.748" r="6" transform="rotate(20.9382 230.748 519.748)" fill="#EFE2D9"/>
<circle cx="294.748" cy="362.748" r="6" transform="rotate(20.9382 294.748 362.748)" fill="#EFE2D9"/>
<circle cx="3275.75" cy="325.748" r="6" transform="rotate(20.9382 3275.75 325.748)" fill="#EFE2D9"/>
<circle cx="3403.75" cy="144.748" r="6" transform="rotate(20.9382 3403.75 144.748)" fill="#EFE2D9"/>
<circle cx="3459.75" cy="376.748" r="6" transform="rotate(20.9382 3459.75 376.748)" fill="#EFE2D9"/>
<circle cx="3268.75" cy="521.748" r="6" transform="rotate(20.9382 3268.75 521.748)" fill="#EFE2D9"/>
<circle cx="3539.75" cy="633.748" r="6" transform="rotate(20.9382 3539.75 633.748)" fill="#EFE2D9"/>
</g>
<defs>
<clipPath id="clip0_66_2">
<rect width="3614" height="693" fill="white"/>
</clipPath>
</defs>
</svg>
